#define monkey-0_width 16
#define monkey-0_height 16
static char monkey-0_bits[] = {
  0xFF, 0xFF, 0xC7, 0xFF, 0xCF, 0xFF, 0x0F, 0xFC, 0x01, 0xE0, 0x01, 0xE4, 
  0x71, 0xFC, 0x71, 0xFE, 0x1F, 0xFC, 0x01, 0x80, 0x01, 0x80, 0x01, 0x80, 
  0x01, 0x80, 0x01, 0x80, 0x1F, 0xE0, 0xFF, 0xFF, };
